# Blender 3.6.12
# www.blender.org
mtllib wireless_remotecontrol.mtl
o cube.008
v 0.234375 0.431250 0.103125
v 0.234375 0.431250 0.046875
v 0.234375 0.375000 0.103125
v 0.234375 0.375000 0.046875
v 0.178125 0.431250 0.046875
v 0.178125 0.431250 0.103125
v 0.178125 0.375000 0.046875
v 0.178125 0.375000 0.103125
v 0.375000 0.375000 0.187500
v 0.375000 0.375000 -0.000000
v 0.375000 0.000000 0.187500
v 0.375000 0.000000 0.000000
v -0.375000 0.375000 -0.000000
v -0.375000 0.375000 0.187500
v -0.375000 0.000000 0.000000
v -0.375000 0.000000 0.187500
v 0.187500 0.375000 -0.000000
v 0.187500 0.375000 -0.187500
v 0.187500 0.000000 0.000000
v 0.187500 -0.000000 -0.187500
v -0.187500 0.375000 -0.187500
v -0.187500 0.375000 -0.000000
v -0.187500 -0.000000 -0.187500
v -0.187500 0.000000 0.000000
v 0.187500 0.393750 -0.000000
v 0.187500 0.393750 -0.187500
v 0.187500 0.375000 -0.000000
v 0.187500 0.375000 -0.187500
v -0.187500 0.393750 -0.187500
v -0.187500 0.393750 -0.000000
v -0.187500 0.375000 -0.187500
v -0.187500 0.375000 -0.000000
v -0.082376 0.375000 -0.080492
v -0.188442 0.375000 -0.186558
v -0.082376 -0.000000 -0.080492
v -0.188442 -0.000000 -0.186558
v -0.374058 0.375000 -0.000942
v -0.267992 0.375000 0.105124
v -0.374058 -0.000000 -0.000942
v -0.267992 0.000000 0.105124
v 0.372173 0.375000 -0.000942
v 0.186558 0.375000 -0.186558
v 0.372173 -0.000000 -0.000942
v 0.186558 -0.000000 -0.186558
v 0.080492 0.375000 -0.080492
v 0.266107 0.375000 0.105124
v 0.080492 -0.000000 -0.080492
v 0.266107 0.000000 0.105124
v 0.018750 0.431250 0.093750
v 0.018750 0.431250 0.056250
v 0.018750 0.375000 0.093750
v 0.018750 0.375000 0.056250
v -0.018750 0.431250 0.056250
v -0.018750 0.431250 0.093750
v -0.018750 0.375000 0.056250
v -0.018750 0.375000 0.093750
v 0.028125 0.487500 0.103125
v 0.028125 0.487500 0.046875
v 0.028125 0.431250 0.103125
v 0.028125 0.431250 0.046875
v -0.028125 0.487500 0.046875
v -0.028125 0.487500 0.103125
v -0.028125 0.431250 0.046875
v -0.028125 0.431250 0.103125
v -0.140625 0.431250 0.103125
v -0.140625 0.431250 0.046875
v -0.140625 0.375000 0.103125
v -0.140625 0.375000 0.046875
v -0.196875 0.431250 0.046875
v -0.196875 0.431250 0.103125
v -0.196875 0.375000 0.046875
v -0.196875 0.375000 0.103125
vn -0.0000 -0.0000 -1.0000
vn 1.0000 -0.0000 -0.0000
vn -0.0000 -0.0000 1.0000
vn -1.0000 -0.0000 -0.0000
vn -0.0000 1.0000 -0.0000
vn -0.0000 -1.0000 -0.0000
vn -0.7071 -0.0000 -0.7071
vn 0.7071 -0.0000 -0.7071
vn 0.7071 -0.0000 0.7071
vn -0.7071 -0.0000 0.7071
vt 0.181250 0.031250
vt 0.125000 0.031250
vt 0.125000 0.087500
vt 0.181250 0.087500
vt 0.150000 0.031250
vt 0.125000 0.056250
vt 0.150000 0.056250
vt 0.093750 0.031250
vt 0.093750 0.087500
vt 0.150000 0.087500
vt 0.093750 0.000000
vt 0.181250 0.000000
vt 0.181250 0.093750
vt 0.093750 0.093750
vt 0.312500 0.050000
vt 0.362500 0.050000
vt 0.362500 0.000000
vt 0.312500 0.000000
vt 0.125000 0.937500
vt 0.000000 0.937500
vt 0.000000 1.000000
vt 0.125000 1.000000
vt 0.046875 0.500000
vt 0.000000 0.500000
vt 0.000000 0.546875
vt 0.046875 0.546875
vt 0.000000 0.531250
vt 0.046875 0.531250
vt 0.031250 0.500000
vt 0.031250 0.546875
vt 0.000000 0.593750
vt 1.000000 0.593750
vt 1.000000 0.156250
vt 0.000000 0.156250
vt 0.062500 0.875000
vt 0.000000 0.875000
vt 0.062500 1.000000
vt 0.125000 0.875000
vt 0.187500 0.500000
vt 0.140625 0.500000
vt 0.140625 0.534375
vt 0.187500 0.534375
vt 0.140625 0.546875
vt 0.187500 0.546875
vt 0.968750 1.000000
vt 0.968750 0.515625
vt 0.000000 0.515625
vt 0.043750 0.500000
vt 0.043750 0.546875
vt 0.050000 0.875000
vt 0.050000 1.000000
vt 0.087500 0.875000
vt 0.087500 1.000000
vt 0.000000 0.562500
vt 0.356250 0.562500
vt 0.356250 0.256250
vt 0.000000 0.256250
vt 0.000000 0.540625
vt 0.043750 0.540625
vt 0.125000 0.287500
vt 0.125000 0.593750
vt 0.668750 0.593750
vt 0.668750 0.287500
vt 0.162500 0.500000
vt 0.140625 0.540625
vt 0.162500 0.540625
vt 0.178125 0.500000
vt 0.178125 0.540625
vt 0.281250 0.081250
vt 0.325000 0.081250
vt 0.325000 0.006250
vt 0.281250 0.006250
vt 0.268750 0.000000
vt 0.218750 0.000000
vt 0.218750 0.081250
vt 0.268750 0.081250
vt 0.259375 0.037500
vt 0.203125 0.037500
vt 0.203125 0.093750
vt 0.259375 0.093750
vt 0.228125 0.031250
vt 0.187500 0.031250
vt 0.187500 0.071875
vt 0.228125 0.071875
vt 0.259375 0.068750
vt 0.203125 0.068750
vt 0.218750 0.071875
vt 0.259375 0.071875
vt 0.259375 0.031250
vt 0.218750 0.031250
vt 0.218750 0.078125
vt 0.259375 0.078125
vt 0.218750 0.037500
vt 0.175000 0.000000
vt 0.125000 0.000000
vt 0.125000 0.050000
vt 0.175000 0.050000
vt 0.143750 0.012500
vt 0.093750 0.012500
vt 0.093750 0.062500
vt 0.143750 0.062500
vt 0.093750 0.081250
vt 0.175000 0.081250
vt 0.018750 1.000000
vt 0.018750 0.981250
vt 0.000000 0.981250
s 0
usemtl m_7f922788-d0f6-cc12-83ba-81cf426096f7
f 4/1/1 7/2/1 5/3/1 2/4/1
f 3/1/2 4/2/2 2/3/2 1/4/2
f 8/5/3 3/2/3 1/6/3 6/7/3
f 7/5/4 8/8/4 6/9/4 5/10/4
f 6/11/5 1/12/5 2/13/5 5/14/5
f 14/31/5 9/32/5 10/33/5 13/34/5
f 28/39/1 31/40/1 29/41/1 26/42/1
f 27/39/2 28/40/2 26/41/2 25/42/2
f 32/39/3 27/40/3 25/43/3 30/44/3
f 31/39/4 32/40/4 30/41/4 29/42/4
f 30/21/5 25/45/5 26/46/5 29/47/5
f 38/54/5 33/55/5 34/56/5 37/57/5
f 46/60/5 41/61/5 42/62/5 45/63/5
f 59/77/2 60/78/2 58/79/2 57/80/2
f 64/81/3 59/82/3 57/83/3 62/84/3
f 63/85/4 64/86/4 62/79/4 61/80/4
f 62/87/5 57/88/5 58/89/5 61/90/5
f 63/91/6 60/92/6 59/77/6 64/93/6
usemtl none
f 7/15/6 4/16/6 3/17/6 8/18/6
f 19/35/2 20/36/2 18/21/2 17/37/2
f 24/38/3 19/36/3 17/21/3 22/22/3
f 23/35/4 24/36/4 22/21/4 21/37/4
f 22/21/5 17/22/5 18/19/5 21/20/5
f 31/21/6 28/22/6 27/19/6 32/20/6
f 35/50/8 36/36/8 34/21/8 33/51/8
f 40/52/9 35/36/9 33/21/9 38/53/9
f 39/50/10 40/36/10 38/21/10 37/51/10
f 44/50/7 47/36/7 45/21/7 42/51/7
f 48/50/9 43/36/9 41/21/9 46/51/9
f 47/52/10 48/36/10 46/21/10 45/53/10
f 54/69/5 49/70/5 50/71/5 53/72/5
f 55/69/6 52/70/6 51/71/6 56/72/6
f 60/73/1 63/74/1 61/75/1 58/76/1
f 68/94/1 71/95/1 69/96/1 66/97/1
f 71/21/6 68/104/6 67/105/6 72/106/6
usemtl m_f47ebca5-48ae-2344-79d1-df90bb99d9f7
f 12/19/1 15/20/1 13/21/1 10/22/1
f 11/23/2 12/24/2 10/25/2 9/26/2
f 16/23/3 11/24/3 9/27/3 14/28/3
f 15/29/4 16/24/4 14/25/4 13/30/4
f 15/25/6 12/26/6 11/23/6 16/24/6
f 20/23/1 23/24/1 21/25/1 18/26/1
f 23/25/6 20/26/6 19/23/6 24/24/6
f 36/48/7 39/24/7 37/25/7 34/49/7
f 39/58/6 36/59/6 35/48/6 40/24/6
f 43/48/8 44/24/8 42/25/8 41/49/8
f 47/59/6 44/48/6 43/24/6 48/58/6
usemtl m_94fe12e2-c32a-dc84-bd4a-2a4c82803d9a
f 52/64/1 55/40/1 53/65/1 50/66/1
f 51/64/2 52/40/2 50/65/2 49/66/2
f 56/67/3 51/40/3 49/65/3 54/68/3
f 55/64/4 56/40/4 54/65/4 53/66/4
usemtl m_620016f7-4365-c3c1-9cb0-05bbebc1bb24
f 67/98/2 68/99/2 66/100/2 65/101/2
f 72/94/3 67/11/3 65/102/3 70/103/3
f 71/94/4 72/95/4 70/96/4 69/97/4
f 70/96/5 65/97/5 66/94/5 69/95/5
